<?xml version="1.0" encoding="utf-8"?>
<!-- Generator: Adobe Illustrator 17.0.0, SVG Export Plug-In . SVG Version: 6.00 Build 0)  -->
<!DOCTYPE svg PUBLIC "-//W3C//DTD SVG 1.1//EN" "http://www.w3.org/Graphics/SVG/1.1/DTD/svg11.dtd">
<svg version="1.1" id="Layer_1" xmlns="http://www.w3.org/2000/svg" xmlns:xlink="http://www.w3.org/1999/xlink" x="0px" y="0px"
	 width="100.9px" height="139.6px" viewBox="0 0 100.9 139.6" enable-background="new 0 0 100.9 139.6" xml:space="preserve">
<g>
	<path fill="#CBE37F" d="M50.5,0C22.6,0,0,22.6,0,50.5c0,27.9,22.6,50.5,50.5,50.5s50.5-22.6,50.5-50.5C100.9,22.6,78.3,0,50.5,0z
		 M50.5,81.6c-17.2,0-31.2-14-31.2-31.2c0-17.2,14-31.2,31.2-31.2c17.2,0,31.2,14,31.2,31.2C81.6,67.7,67.7,81.6,50.5,81.6z"/>
	<path fill="#CBE37F" d="M96.9,139.6c-7.7-18-25.6-30.7-46.4-30.7S11.7,121.5,4,139.6H96.9z"/>
</g>
</svg>
